<svg width="75" height="75" viewBox="0 0 75 75" fill="none" xmlns="http://www.w3.org/2000/svg">
<path d="M37.5 72C56.5538 72 72 56.5538 72 37.5C72 18.4462 56.5538 3 37.5 3C18.4462 3 3 18.4462 3 37.5C3 56.5538 18.4462 72 37.5 72Z" fill="#FFC2C2"/>
<path d="M37.4993 64.5827C52.4571 64.5827 64.5827 52.4571 64.5827 37.4993C64.5827 22.5416 52.4571 10.416 37.4993 10.416C22.5416 10.416 10.416 22.5416 10.416 37.4993C10.416 52.4571 22.5416 64.5827 37.4993 64.5827Z" fill="#FF7777" stroke="#FF9696" stroke-width="3" stroke-linecap="round" stroke-linejoin="round"/>
<path d="M29.0513 45.3086L46.1415 30.1872" stroke="white" stroke-width="3" stroke-linecap="round" stroke-linejoin="round"/>
<path d="M46.2566 45.1765L28.9362 30.3195" stroke="white" stroke-width="3" stroke-linecap="round" stroke-linejoin="round"/>
</svg>
