<svg width="40" height="28" viewBox="0 0 40 28" fill="none" xmlns="http://www.w3.org/2000/svg">
<rect width="40" height="28" rx="3" fill="white"/>
<g clip-path="url(#clip0_1543_141430)">
<path d="M17.1521 9.85387C16.9083 9.60753 16.6157 9.40939 16.2834 9.26482C15.9499 9.12025 15.5879 9.04574 15.2071 9.04384C14.8263 9.04194 14.4633 9.11295 14.1288 9.25435C13.7953 9.39544 13.5011 9.59073 13.2548 9.83485C13.0084 10.079 12.8055 10.371 12.6613 10.7032C12.5164 11.0367 12.4374 11.3988 12.4355 11.7793L12.4133 16.3516C12.413 16.4248 12.4216 16.4971 12.4267 16.5691L11.3693 17.5957L11.3982 11.6981C11.4001 11.3281 11.3303 10.9756 11.1924 10.6496C11.0551 10.3253 10.8649 10.039 10.6278 9.79966C10.4994 9.67031 10.3564 9.55586 10.2017 9.4544C10.1427 9.41509 10.0818 9.378 10.0197 9.34344C10.0165 9.34154 10.013 9.33995 10.0102 9.33837C9.9585 9.30983 9.90619 9.28257 9.85261 9.25752C9.83042 9.24706 9.80759 9.23787 9.78508 9.22804C9.78445 9.22804 9.78381 9.2274 9.78318 9.22709C9.78191 9.22645 9.78096 9.22614 9.77969 9.22582C9.74355 9.21028 9.70709 9.19538 9.67 9.18175C9.66239 9.1789 9.65478 9.17604 9.64717 9.17319C9.6142 9.16114 9.58122 9.14973 9.54794 9.13895C9.5362 9.13515 9.52416 9.13166 9.51243 9.12785C9.48231 9.11866 9.45187 9.10978 9.42112 9.10186C9.40558 9.09774 9.39005 9.09393 9.37451 9.09013C9.34662 9.08347 9.31872 9.07649 9.29082 9.07079C9.27179 9.06667 9.25245 9.0635 9.23343 9.05969C9.20807 9.05493 9.18271 9.05018 9.15703 9.04606C9.1342 9.04257 9.11105 9.03972 9.08791 9.03655C9.0654 9.03369 9.04257 9.03021 9.01975 9.02799C8.92051 9.01752 8.82096 9.0245 8.72173 9.02799C8.63328 9.03116 8.54229 9.02006 8.45447 9.02862C8.43164 9.03084 8.40913 9.03211 8.3863 9.03496C8.36316 9.03781 8.34001 9.0394 8.31719 9.04289C8.29151 9.04669 8.26583 9.05081 8.24046 9.05525C8.22112 9.05874 8.2021 9.06159 8.18308 9.0654C8.15486 9.0711 8.12696 9.07744 8.09906 9.08379C8.08321 9.08759 8.06768 9.09108 8.05214 9.09488C8.02139 9.10249 7.99127 9.11137 7.96083 9.11993C7.94879 9.12342 7.93706 9.1269 7.92501 9.13071C7.8914 9.14117 7.85843 9.15227 7.82546 9.16368C7.81785 9.16653 7.81024 9.16939 7.80263 9.17192C7.76554 9.18556 7.72908 9.19982 7.69262 9.21504C7.69135 9.21567 7.6904 9.21599 7.68913 9.21631C7.6885 9.21631 7.68786 9.21694 7.68723 9.21726C7.66472 9.22677 7.64189 9.23596 7.61938 9.24611C7.56549 9.27084 7.51286 9.29747 7.46086 9.32537C7.45769 9.32727 7.45421 9.32854 7.45104 9.33044C7.38858 9.36437 7.32739 9.40083 7.2681 9.43982C7.11275 9.53969 6.9685 9.65255 6.83915 9.78096C6.59978 10.0181 6.40639 10.3022 6.26594 10.6252C6.12518 10.9496 6.05194 11.3018 6.05035 11.6715L6.02626 16.6138C6.02626 16.6338 6.02626 16.6541 6.02626 16.675L6.01707 18.5842C6.0158 18.8343 6.20348 19.0385 6.45395 19.0398C6.70441 19.041 6.894 18.8391 6.89527 18.5886L6.90446 16.6794C6.90446 16.6632 6.90446 16.6474 6.90446 16.6315L6.92855 11.6759C6.92855 11.6147 6.94377 11.5542 6.9498 11.4949C6.96406 11.3573 7.00147 11.2248 7.04681 11.097C7.06013 11.0593 7.07598 11.0212 7.09215 10.9844C7.10578 10.9534 7.12322 10.9242 7.13812 10.8944C7.21199 10.7473 7.30266 10.6145 7.4076 10.4975C7.42979 10.4727 7.45167 10.4474 7.47513 10.4239C7.47957 10.4195 7.48496 10.4157 7.48971 10.4109C7.54361 10.3586 7.60226 10.3107 7.66313 10.2657C7.77727 10.1811 7.9025 10.1075 8.04009 10.0489C8.22873 9.96864 8.43164 9.92553 8.64279 9.91633C8.67291 9.91506 8.70271 9.91221 8.73346 9.91221C8.7639 9.91221 8.7937 9.91538 8.82413 9.91697C9.03528 9.92838 9.23755 9.9734 9.42524 10.0555C9.5454 10.1081 9.65636 10.1725 9.75845 10.2451C9.83549 10.2996 9.90746 10.3592 9.97372 10.4249C9.97784 10.429 9.98228 10.4322 9.98608 10.4363C9.99908 10.4496 10.0105 10.4642 10.0232 10.4778C10.1405 10.6043 10.2394 10.7501 10.3187 10.9128C10.3329 10.942 10.3481 10.9705 10.3608 11.0009C10.3767 11.0377 10.389 11.0761 10.402 11.1141C10.4461 11.2425 10.4683 11.375 10.4813 11.5129C10.4867 11.5725 10.4813 11.6331 10.481 11.6943L10.4407 18.4764V18.5899L10.4458 18.7002C10.4582 18.7846 10.5082 18.8755 10.5786 18.9431C10.6636 19.0246 10.7793 19.0667 10.8906 19.0674C10.9822 19.0677 11.0761 19.0407 11.1534 18.9862C11.1712 18.9735 11.1896 18.9605 11.2057 18.945L12.685 17.5449C12.8207 17.8312 12.9983 18.0864 13.2139 18.3042C13.4577 18.5506 13.7503 18.7487 14.0822 18.8933C14.4154 19.0379 14.7778 19.1124 15.1586 19.1143C15.539 19.1162 15.902 19.0452 16.2368 18.9038C16.5707 18.7627 16.8649 18.5674 17.1112 18.3233C17.3576 18.0791 17.5564 17.7872 17.7006 17.4549C17.8455 17.1217 17.9206 16.7612 17.9225 16.3804C17.9225 16.3804 17.9229 16.2958 17.9225 16.2958C17.9238 16.0006 17.7171 15.8504 17.4606 15.8491C17.2127 15.8478 17.0199 16.0079 17.0053 16.2609L17.0047 16.3808C17.0034 16.6322 16.9495 16.8684 16.8528 17.089C16.7555 17.3113 16.6214 17.5037 16.4594 17.6641C16.2968 17.8252 16.1002 17.9542 15.8776 18.049C15.6563 18.1435 15.416 18.1904 15.164 18.1892C14.9119 18.1879 14.6722 18.1381 14.4519 18.0414C14.2303 17.9444 14.0363 17.8128 13.8752 17.6499C13.7142 17.4872 13.5842 17.2916 13.4894 17.0691C13.4596 16.9993 13.4352 16.9277 13.4149 16.8544L17.3002 13.1755C17.3113 13.165 17.3224 13.1527 17.3332 13.1397C17.3959 13.0848 17.4543 13.0274 17.5075 12.9678C17.7954 12.6464 17.9431 12.2583 17.945 11.8062V11.7869C17.9469 11.4191 17.8753 11.0631 17.7339 10.728C17.5928 10.3941 17.3969 10.0999 17.1531 9.85387H17.1521ZM16.7625 12.3915C16.7466 12.4032 16.7726 12.3759 16.7596 12.3886L13.335 15.6801L13.3385 14.9756L13.3397 14.7258L13.3442 13.8112L13.3477 13.0874L13.354 11.7834C13.3553 11.5316 13.413 11.292 13.5097 11.0719C13.6067 10.85 13.7424 10.656 13.905 10.4952C14.0673 10.3345 14.2645 10.2048 14.4874 10.1094C14.709 10.0149 14.95 9.96769 15.2014 9.96896C15.4525 9.97023 15.6925 10.0197 15.9135 10.1164C16.136 10.214 16.33 10.3456 16.4905 10.5079C16.6512 10.6703 16.7815 10.8627 16.8769 11.0799C16.9711 11.2948 17.0183 11.5307 17.0171 11.7818C17.0158 12.0411 16.9324 12.2409 16.7622 12.3908L16.7625 12.3915Z" fill="#101014" stroke="#101014" stroke-width="0.0317039" stroke-miterlimit="10"/>
<path d="M24.3087 14.404C24.1299 14.2208 23.8201 14.217 23.6366 14.3961L20.261 17.6775V9.49752C20.261 9.24135 20.0534 9.03369 19.7972 9.03369C19.541 9.03369 19.3334 9.24135 19.3334 9.49752V18.6143C19.3334 18.6143 19.3327 19.0972 19.9475 19.1225C20.0641 19.1273 20.1853 19.0772 20.2756 18.9887L24.2992 15.06C24.4824 14.8809 24.4878 14.587 24.3087 14.4034V14.404Z" fill="#101014" stroke="#101014" stroke-width="0.0317039" stroke-miterlimit="10"/>
<path d="M25.9973 9.03369C25.7411 9.03369 25.5335 9.24135 25.5335 9.49752V17.5652L23.8753 15.8989L23.24 16.5111L24.8036 18.0373L25.6431 18.8711L25.8048 19.0147C25.8714 19.0515 25.932 19.0724 26.0131 19.0724C26.2693 19.0724 26.4614 18.8648 26.4614 18.6086V9.49752C26.4614 9.24135 26.2538 9.03369 25.9976 9.03369H25.9973Z" fill="#101014" stroke="#101014" stroke-width="0.0317039" stroke-miterlimit="10"/>
<path d="M33.1674 12.7391L32.2378 13.6404L32.2394 13.7647V15.8632C32.2394 16.0084 32.2366 16.1536 32.2331 16.2988C32.2264 16.5467 32.2106 16.7721 32.1107 17.0026C32.015 17.2239 31.8875 17.4176 31.7268 17.5781C31.67 17.6348 31.6088 17.6865 31.5441 17.7353C31.4256 17.825 31.2962 17.9024 31.1532 17.9642C30.9338 18.059 30.6961 18.1075 30.4453 18.1075C30.1945 18.1075 29.9567 18.0593 29.7373 17.9642C29.5944 17.9024 29.4647 17.8247 29.3461 17.7353C29.2814 17.6865 29.219 17.6348 29.1622 17.5781C29.1289 17.5448 29.0979 17.5093 29.0674 17.4731C29.0662 17.4741 29.0652 17.4747 29.0639 17.476C29.0532 17.4585 29.0427 17.4408 29.0329 17.4224C28.913 17.196 28.6321 17.1095 28.4058 17.2293C28.1794 17.3492 28.0929 17.6301 28.2127 17.8564C28.227 17.8834 28.2419 17.9097 28.2574 17.9357C28.2568 17.9357 28.2561 17.936 28.2558 17.9363C28.2587 17.9404 28.2618 17.9442 28.265 17.948C28.5199 18.3703 28.9394 18.6858 29.5135 18.8865C29.5588 18.9023 29.6051 18.9103 29.6508 18.9118C29.9035 18.9879 30.1698 19.0272 30.4459 19.0272C30.808 19.0272 31.1532 18.9604 31.4731 18.83C31.4877 18.824 31.5026 18.819 31.5169 18.8126C31.5441 18.8009 31.5708 18.7882 31.5974 18.7758C31.7734 18.694 31.9379 18.5973 32.0891 18.4851C32.1934 18.4074 32.2917 18.3228 32.383 18.2315C32.6268 17.9877 32.8225 17.6963 32.9642 17.3653C33.0507 17.1637 33.1265 16.9326 33.15 16.7135C33.1696 16.5271 33.1674 16.3407 33.1674 16.1536V12.7388V12.7391Z" fill="#101014" stroke="#101014" stroke-width="0.0317039" stroke-miterlimit="10"/>
<path d="M34.6283 10.3415C34.5437 10.261 34.4333 10.221 34.3233 10.221C34.2133 10.221 34.0998 10.2622 34.0152 10.3447L33.1278 11.2057C33.1278 11.2057 33.1271 11.2026 33.1268 11.201C33.091 11.0219 33.0371 10.8465 32.9645 10.6772C32.8225 10.3462 32.6268 10.0546 32.3834 9.81108C32.292 9.71977 32.1938 9.63512 32.0895 9.55745C31.9154 9.42809 31.7239 9.31871 31.5172 9.22994C31.1853 9.08759 30.8248 9.01562 30.4462 9.01562C30.0677 9.01562 29.7072 9.08791 29.3753 9.22994C29.1686 9.31871 28.9771 9.42841 28.803 9.55745C28.6987 9.63512 28.6004 9.71977 28.5091 9.81108C28.2653 10.0546 28.0554 10.3462 27.9134 10.6772C27.7711 11.0095 27.6845 11.3633 27.6845 11.7288V11.7387L27.7124 15.1205C27.7115 15.1662 27.707 15.2258 27.707 15.2714C27.707 15.377 27.7105 15.4854 27.7105 15.591C27.7105 15.7194 27.7124 15.8494 27.7121 15.9778C27.7121 16.0958 27.7127 16.2143 27.7127 16.3323C27.7127 16.3808 27.7134 16.4299 27.7127 16.4784C27.7127 16.5136 27.7127 16.5491 27.7115 16.5843C27.7083 16.7184 27.7517 16.8249 27.8503 16.9185C28.0206 17.0805 28.2824 17.0789 28.4511 16.9153L32.2394 13.2323V13.2332L33.9933 11.5446L34.0031 11.5481L34.6388 10.9299C34.8071 10.7663 34.7986 10.5029 34.6283 10.3408V10.3415ZM32.1037 12.1838L28.6122 15.5733V11.6705C28.6122 11.4201 28.6753 11.182 28.7701 10.9622C28.8655 10.7413 29.0031 10.5479 29.1635 10.3871C29.3239 10.2267 29.5214 10.0967 29.7424 10.001C29.9624 9.90587 30.2024 9.858 30.4526 9.858C30.7027 9.858 30.9415 9.90619 31.1615 10.001C31.3831 10.097 31.5771 10.227 31.7372 10.3871C31.898 10.5479 32.0283 10.7384 32.1243 10.954C32.2191 11.1671 32.2591 11.4017 32.2591 11.6512C32.2591 11.8392 32.1988 12.0313 32.1034 12.1838H32.1037Z" fill="#101014" stroke="#101014" stroke-width="0.0317039" stroke-miterlimit="10"/>
</g>
<defs>
<clipPath id="clip0_1543_141430">
<rect width="28.7764" height="10.1386" fill="white" transform="translate(6 9)"/>
</clipPath>
</defs>
</svg>
