<svg width="75" height="75" viewBox="0 0 75 75" fill="none" xmlns="http://www.w3.org/2000/svg">
<path d="M37.5 72C56.5538 72 72 56.5538 72 37.5C72 18.4462 56.5538 3 37.5 3C18.4462 3 3 18.4462 3 37.5C3 56.5538 18.4462 72 37.5 72Z" fill="#C8FFE2"/>
<path d="M37.4993 64.5827C52.4571 64.5827 64.5827 52.4571 64.5827 37.4993C64.5827 22.5416 52.4571 10.416 37.4993 10.416C22.5416 10.416 10.416 22.5416 10.416 37.4993C10.416 52.4571 22.5416 64.5827 37.4993 64.5827Z" fill="#54C689" stroke="#8BE5B5" stroke-width="3" stroke-linecap="round" stroke-linejoin="round"/>
<path d="M49.6199 30.1871L32.5298 45.3085L27 39.1504" stroke="white" stroke-width="3" stroke-linecap="round" stroke-linejoin="round"/>
</svg>
